<svg width="112" height="23" viewBox="0 0 112 23" fill="none" xmlns="http://www.w3.org/2000/svg">
<path d="M13.8869 10.584C15.0175 11.032 15.9349 11.7147 16.6389 12.632C17.3642 13.5493 17.7269 14.7333 17.7269 16.184C17.7269 18.7227 17.0015 20.4933 15.5509 21.496C14.1002 22.4987 12.3722 23 10.3669 23H2.39888C1.84421 23 1.37488 22.8187 0.990875 22.456C0.628208 22.072 0.446875 21.6027 0.446875 21.048V2.552C0.446875 1.99733 0.628208 1.53867 0.990875 1.176C1.37488 0.791999 1.84421 0.599998 2.39888 0.599998H10.4629C14.5162 0.599998 16.5429 2.49867 16.5429 6.296C16.5429 7.256 16.3082 8.10933 15.8389 8.856C15.3909 9.58133 14.7402 10.1573 13.8869 10.584ZM12.3829 7C12.3829 6.12533 12.1589 5.47467 11.7109 5.048C11.2842 4.6 10.6762 4.376 9.88688 4.376H4.60688V9.368H9.98288C10.6229 9.368 11.1775 9.15467 11.6469 8.728C12.1375 8.30133 12.3829 7.72533 12.3829 7ZM10.3669 19.32C11.3695 19.32 12.1482 19.0533 12.7029 18.52C13.2789 17.9867 13.5669 17.208 13.5669 16.184C13.5669 14.9253 13.2362 14.104 12.5749 13.72C11.9135 13.336 11.1029 13.144 10.1429 13.144H4.60688V19.32H10.3669ZM25.4156 21.048C25.4156 21.6027 25.213 22.072 24.8076 22.456C24.4023 22.8187 23.933 23 23.3996 23C22.8236 23 22.3436 22.8187 21.9596 22.456C21.597 22.072 21.4156 21.6027 21.4156 21.048V2.552C21.4156 1.99733 21.6076 1.53867 21.9916 1.176C22.3756 0.791999 22.8663 0.599998 23.4636 0.599998C23.997 0.599998 24.4556 0.791999 24.8396 1.176C25.2236 1.53867 25.4156 1.99733 25.4156 2.552V21.048ZM42.5801 19.256C43.1348 19.256 43.5935 19.4373 43.9561 19.8C44.3401 20.1413 44.5321 20.5893 44.5321 21.144C44.5321 21.6773 44.3401 22.1253 43.9561 22.488C43.5935 22.8293 43.1348 23 42.5801 23H32.1801C31.6255 23 31.1561 22.8187 30.7721 22.456C30.4095 22.072 30.2281 21.6027 30.2281 21.048V2.552C30.2281 1.99733 30.4201 1.53867 30.8041 1.176C31.1881 0.791999 31.6788 0.599998 32.2761 0.599998C32.8095 0.599998 33.2681 0.791999 33.6521 1.176C34.0361 1.53867 34.2281 1.99733 34.2281 2.552V19.256H42.5801ZM52.1969 21.048C52.1969 21.6027 51.9942 22.072 51.5889 22.456C51.1835 22.8187 50.7142 23 50.1809 23C49.6049 23 49.1249 22.8187 48.7409 22.456C48.3782 22.072 48.1969 21.6027 48.1969 21.048V2.552C48.1969 1.99733 48.3889 1.53867 48.7729 1.176C49.1569 0.791999 49.6475 0.599998 50.2449 0.599998C50.7782 0.599998 51.2369 0.791999 51.6209 1.176C52.0049 1.53867 52.1969 1.99733 52.1969 2.552V21.048ZM82.9701 0.599998C83.4821 0.599998 83.8981 0.770665 84.2181 1.112C84.5381 1.45333 84.6981 1.88 84.6981 2.392V21.048C84.6981 21.6027 84.5061 22.072 84.1221 22.456C83.7595 22.8187 83.3008 23 82.7461 23C82.4475 23 82.1488 22.9573 81.8501 22.872C81.5728 22.7653 81.3701 22.6267 81.2421 22.456L69.4981 7.544V21.208C69.4981 21.72 69.3275 22.1467 68.9861 22.488C68.6661 22.8293 68.2395 23 67.7061 23C67.1941 23 66.7781 22.8293 66.4581 22.488C66.1381 22.1467 65.9781 21.72 65.9781 21.208V2.552C65.9781 1.99733 66.1595 1.53867 66.5221 1.176C66.9061 0.791999 67.3755 0.599998 67.9301 0.599998C68.2501 0.599998 68.5595 0.663999 68.8581 0.792C69.1781 0.919999 69.4128 1.09067 69.5621 1.304L81.2101 16.152V2.392C81.2101 1.88 81.3701 1.45333 81.6901 1.112C82.0315 0.770665 82.4581 0.599998 82.9701 0.599998ZM102.181 19.32C102.736 19.32 103.195 19.512 103.557 19.896C103.941 20.2587 104.133 20.6853 104.133 21.176C104.133 21.7093 103.941 22.1467 103.557 22.488C103.195 22.8293 102.736 23 102.181 23H91.4614C90.9067 23 90.4374 22.8187 90.0534 22.456C89.6907 22.072 89.5094 21.6027 89.5094 21.048V2.552C89.5094 1.99733 89.6907 1.53867 90.0534 1.176C90.4374 0.791999 90.9067 0.599998 91.4614 0.599998H102.181C102.736 0.599998 103.195 0.781332 103.557 1.144C103.941 1.48533 104.133 1.93333 104.133 2.488C104.133 3.02133 103.952 3.45867 103.589 3.8C103.227 4.12 102.757 4.28 102.181 4.28H93.5094V9.72H100.741C101.296 9.72 101.755 9.90133 102.117 10.264C102.501 10.6053 102.693 11.0533 102.693 11.608C102.693 12.1413 102.512 12.5787 102.149 12.92C101.787 13.24 101.317 13.4 100.741 13.4H93.5094V19.32H102.181ZM109.71 15.928C108.985 15.928 108.59 15.5227 108.526 14.712L107.598 2.936C107.555 2.27467 107.726 1.72 108.11 1.272C108.515 0.823999 109.038 0.599998 109.678 0.599998C110.318 0.599998 110.841 0.823999 111.246 1.272C111.651 1.72 111.822 2.27467 111.758 2.936L110.862 14.712C110.798 15.5227 110.414 15.928 109.71 15.928ZM109.486 23C108.867 23 108.387 22.84 108.046 22.52C107.726 22.1787 107.566 21.6987 107.566 21.08V20.536C107.566 19.9173 107.726 19.448 108.046 19.128C108.387 18.7867 108.867 18.616 109.486 18.616H109.902C110.521 18.616 110.99 18.7867 111.31 19.128C111.651 19.448 111.822 19.9173 111.822 20.536V21.08C111.822 21.6987 111.651 22.1787 111.31 22.52C110.99 22.84 110.521 23 109.902 23H109.486Z" fill="white"/>
</svg>
